<mxfile host="app.diagrams.net" modified="2022-01-19T06:42:39.586Z" agent="5.0 (Windows NT 10.0; Win64; x64) AppleWebKit/537.36 (KHTML, like Gecko) Chrome/97.0.4692.71 Safari/537.36" etag="okeCnpZsaRiR1nqHEUlG" version="16.2.4" type="github">
  <diagram id="vfrO2TYfFIwcyNWsNxCn" name="Page-1">
    <mxGraphModel dx="1250" dy="643" grid="1" gridSize="10" guides="1" tooltips="1" connect="1" arrows="1" fold="1" page="1" pageScale="1" pageWidth="850" pageHeight="1100" background="#DAD2D8" math="0" shadow="0">
      <root>
        <mxCell id="0" />
        <mxCell id="1" parent="0" />
        <mxCell id="8z_1amubBo9I-_fpy1Ep-9" value="" style="edgeStyle=orthogonalEdgeStyle;rounded=0;orthogonalLoop=1;jettySize=auto;html=1;labelBackgroundColor=#DAD2D8;strokeColor=#A8201A;fontColor=#143642;" edge="1" parent="1" source="8z_1amubBo9I-_fpy1Ep-1" target="8z_1amubBo9I-_fpy1Ep-6">
          <mxGeometry relative="1" as="geometry" />
        </mxCell>
        <mxCell id="8z_1amubBo9I-_fpy1Ep-1" value="elective app" style="whiteSpace=wrap;html=1;aspect=fixed;fillColor=#FAE5C7;strokeColor=#0F8B8D;fontColor=#143642;" vertex="1" parent="1">
          <mxGeometry x="110" y="230" width="80" height="80" as="geometry" />
        </mxCell>
        <mxCell id="8z_1amubBo9I-_fpy1Ep-8" value="" style="edgeStyle=orthogonalEdgeStyle;rounded=0;orthogonalLoop=1;jettySize=auto;html=1;labelBackgroundColor=#DAD2D8;strokeColor=#A8201A;fontColor=#143642;" edge="1" parent="1" source="8z_1amubBo9I-_fpy1Ep-6">
          <mxGeometry relative="1" as="geometry">
            <mxPoint x="590" y="225" as="targetPoint" />
          </mxGeometry>
        </mxCell>
        <mxCell id="8z_1amubBo9I-_fpy1Ep-6" value="health data ping service" style="whiteSpace=wrap;html=1;aspect=fixed;fillColor=#FAE5C7;strokeColor=#0F8B8D;fontColor=#143642;" vertex="1" parent="1">
          <mxGeometry x="270" y="210" width="190" height="190" as="geometry" />
        </mxCell>
        <mxCell id="8z_1amubBo9I-_fpy1Ep-16" value="" style="edgeStyle=orthogonalEdgeStyle;rounded=0;orthogonalLoop=1;jettySize=auto;html=1;labelBackgroundColor=#DAD2D8;strokeColor=#A8201A;fontColor=#143642;" edge="1" parent="1" source="8z_1amubBo9I-_fpy1Ep-11">
          <mxGeometry relative="1" as="geometry">
            <mxPoint x="640" y="390" as="targetPoint" />
          </mxGeometry>
        </mxCell>
        <mxCell id="8z_1amubBo9I-_fpy1Ep-11" value="Godzilla topic" style="ellipse;whiteSpace=wrap;html=1;fillColor=#FAE5C7;strokeColor=#0F8B8D;fontColor=#143642;" vertex="1" parent="1">
          <mxGeometry x="590" y="190" width="120" height="100" as="geometry" />
        </mxCell>
        <mxCell id="8z_1amubBo9I-_fpy1Ep-14" value="" style="edgeStyle=orthogonalEdgeStyle;rounded=0;orthogonalLoop=1;jettySize=auto;html=1;labelBackgroundColor=#DAD2D8;strokeColor=#A8201A;fontColor=#143642;" edge="1" parent="1" source="8z_1amubBo9I-_fpy1Ep-13" target="8z_1amubBo9I-_fpy1Ep-6">
          <mxGeometry relative="1" as="geometry" />
        </mxCell>
        <mxCell id="8z_1amubBo9I-_fpy1Ep-13" value="Health job keep pining every second" style="rounded=1;whiteSpace=wrap;html=1;fillColor=#FAE5C7;strokeColor=#0F8B8D;fontColor=#143642;" vertex="1" parent="1">
          <mxGeometry x="310" y="100" width="120" height="60" as="geometry" />
        </mxCell>
        <mxCell id="8z_1amubBo9I-_fpy1Ep-19" value="" style="edgeStyle=orthogonalEdgeStyle;rounded=0;orthogonalLoop=1;jettySize=auto;html=1;labelBackgroundColor=#DAD2D8;strokeColor=#A8201A;fontColor=#143642;" edge="1" parent="1" source="8z_1amubBo9I-_fpy1Ep-17" target="8z_1amubBo9I-_fpy1Ep-18">
          <mxGeometry relative="1" as="geometry" />
        </mxCell>
        <mxCell id="8z_1amubBo9I-_fpy1Ep-17" value="TELEGRAPH" style="rounded=0;whiteSpace=wrap;html=1;fillColor=#FAE5C7;strokeColor=#0F8B8D;fontColor=#143642;" vertex="1" parent="1">
          <mxGeometry x="590" y="390" width="120" height="60" as="geometry" />
        </mxCell>
        <mxCell id="8z_1amubBo9I-_fpy1Ep-18" value="Inflex db" style="whiteSpace=wrap;html=1;rounded=0;fillColor=#FAE5C7;strokeColor=#0F8B8D;fontColor=#143642;" vertex="1" parent="1">
          <mxGeometry x="790" y="390" width="120" height="60" as="geometry" />
        </mxCell>
        <mxCell id="8z_1amubBo9I-_fpy1Ep-21" style="edgeStyle=orthogonalEdgeStyle;rounded=0;orthogonalLoop=1;jettySize=auto;html=1;labelBackgroundColor=#DAD2D8;strokeColor=#A8201A;fontColor=#143642;" edge="1" parent="1" source="8z_1amubBo9I-_fpy1Ep-20" target="8z_1amubBo9I-_fpy1Ep-18">
          <mxGeometry relative="1" as="geometry">
            <mxPoint x="830" y="460" as="targetPoint" />
          </mxGeometry>
        </mxCell>
        <mxCell id="8z_1amubBo9I-_fpy1Ep-20" value="Grafana bord for elective" style="rounded=0;whiteSpace=wrap;html=1;fillColor=#FAE5C7;strokeColor=#0F8B8D;fontColor=#143642;" vertex="1" parent="1">
          <mxGeometry x="530" y="530" width="350" height="60" as="geometry" />
        </mxCell>
        <mxCell id="8z_1amubBo9I-_fpy1Ep-23" value="" style="edgeStyle=orthogonalEdgeStyle;rounded=0;orthogonalLoop=1;jettySize=auto;html=1;labelBackgroundColor=#DAD2D8;strokeColor=#A8201A;fontColor=#143642;" edge="1" parent="1" source="8z_1amubBo9I-_fpy1Ep-22" target="8z_1amubBo9I-_fpy1Ep-20">
          <mxGeometry relative="1" as="geometry" />
        </mxCell>
        <mxCell id="8z_1amubBo9I-_fpy1Ep-22" value="Actor" style="shape=umlActor;verticalLabelPosition=bottom;verticalAlign=top;html=1;outlineConnect=0;fillColor=#FAE5C7;strokeColor=#0F8B8D;fontColor=#143642;" vertex="1" parent="1">
          <mxGeometry x="400" y="540" width="30" height="60" as="geometry" />
        </mxCell>
        <mxCell id="8z_1amubBo9I-_fpy1Ep-25" value="" style="edgeStyle=orthogonalEdgeStyle;rounded=0;orthogonalLoop=1;jettySize=auto;html=1;labelBackgroundColor=#DAD2D8;strokeColor=#A8201A;fontColor=#143642;" edge="1" parent="1" source="8z_1amubBo9I-_fpy1Ep-24" target="8z_1amubBo9I-_fpy1Ep-22">
          <mxGeometry relative="1" as="geometry" />
        </mxCell>
        <mxCell id="8z_1amubBo9I-_fpy1Ep-24" value="if actor finds any abnormal condition" style="rhombus;whiteSpace=wrap;html=1;fillColor=#FAE5C7;strokeColor=#0F8B8D;fontColor=#143642;" vertex="1" parent="1">
          <mxGeometry x="220" y="480" width="140" height="160" as="geometry" />
        </mxCell>
        <mxCell id="8z_1amubBo9I-_fpy1Ep-26" value="raise incident" style="whiteSpace=wrap;html=1;fillColor=#FAE5C7;strokeColor=#0F8B8D;fontColor=#143642;" vertex="1" parent="1">
          <mxGeometry x="10" y="540" width="120" height="60" as="geometry" />
        </mxCell>
        <mxCell id="8z_1amubBo9I-_fpy1Ep-28" value="No action needed" style="whiteSpace=wrap;html=1;fillColor=#FAE5C7;strokeColor=#0F8B8D;fontColor=#143642;" vertex="1" parent="1">
          <mxGeometry x="230" y="740" width="120" height="60" as="geometry" />
        </mxCell>
        <mxCell id="8z_1amubBo9I-_fpy1Ep-32" value="yes" style="html=1;shadow=0;dashed=0;align=center;verticalAlign=middle;shape=mxgraph.arrows2.arrow;dy=0.6;dx=40;flipH=1;notch=0;fillColor=#FAE5C7;strokeColor=#0F8B8D;fontColor=#143642;" vertex="1" parent="1">
          <mxGeometry x="130" y="530" width="100" height="70" as="geometry" />
        </mxCell>
        <mxCell id="8z_1amubBo9I-_fpy1Ep-35" value="no" style="html=1;shadow=0;dashed=0;align=center;verticalAlign=middle;shape=mxgraph.arrows2.arrow;dy=0.6;dx=40;direction=south;notch=0;fillColor=#FAE5C7;strokeColor=#0F8B8D;fontColor=#143642;" vertex="1" parent="1">
          <mxGeometry x="255" y="640" width="70" height="100" as="geometry" />
        </mxCell>
      </root>
    </mxGraphModel>
  </diagram>
</mxfile>
